<?xml version="1.0" encoding="utf-8"?>
<!-- Generator: Adobe Illustrator 16.0.0, SVG Export Plug-In . SVG Version: 6.00 Build 0)  -->
<!DOCTYPE svg PUBLIC "-//W3C//DTD SVG 1.1//EN" "http://www.w3.org/Graphics/SVG/1.1/DTD/svg11.dtd">
<svg version="1.1" id="Layer_1" xmlns="http://www.w3.org/2000/svg" xmlns:xlink="http://www.w3.org/1999/xlink" x="0px" y="0px"
	 width="64px" height="64px" viewBox="0 0 64 64" enable-background="new 0 0 64 64" xml:space="preserve">
<g>
	<circle fill="#86BF65" cx="32" cy="32" r="30"/>
	<path fill="#FFFFFF" d="M49.496,27.002H37.004V14.498c0-1.374-1.125-2.496-2.502-2.496h-4.998c-1.374,0-2.502,1.128-2.502,2.496
		v12.504H14.504c-1.374,0-2.502,1.122-2.502,2.502v4.992c0,1.383,1.128,2.508,2.502,2.508h12.498v12.504
		c0,1.371,1.128,2.496,2.502,2.496h4.998c1.377,0,2.502-1.125,2.502-2.496V37.004h12.492c1.383,0,2.508-1.125,2.508-2.508v-4.992
		C52.004,28.124,50.879,27.002,49.496,27.002z"/>
</g>
</svg>
