<?xml version="1.0" encoding="utf-8"?>
<!-- Generator: Adobe Illustrator 16.0.0, SVG Export Plug-In . SVG Version: 6.00 Build 0)  -->
<!DOCTYPE svg PUBLIC "-//W3C//DTD SVG 1.1//EN" "http://www.w3.org/Graphics/SVG/1.1/DTD/svg11.dtd">
<svg version="1.1" id="Capa_1" xmlns="http://www.w3.org/2000/svg" xmlns:xlink="http://www.w3.org/1999/xlink" x="0px" y="0px"
	 width="24px" height="24px" viewBox="0 0 24 24" enable-background="new 0 0 24 24" xml:space="preserve">
<path fill="#52A1D9" d="M22.5,12c0,5.79-4.71,10.5-10.5,10.5S1.5,17.79,1.5,12S6.21,1.5,12,1.5S22.5,6.21,22.5,12z"/>
<path fill="#FFFFFF" d="M18.952,9.412l-7.004,7.027l-0.641,0.645c-0.342,0.344-0.791,0.518-1.242,0.518h-0.027
	c-0.444,0-0.887-0.17-1.227-0.511l-3.77-3.784c-0.678-0.679-0.678-1.78,0-2.459c0.677-0.679,1.773-0.679,2.449,0l2.531,2.538
	l1.924-1.932l4.521-4.536c0.688-0.689,1.8-0.689,2.483,0C19.639,7.606,19.639,8.724,18.952,9.412z"/>
</svg>
