<?xml version="1.0" encoding="utf-8"?>
<!-- Generator: Adobe Illustrator 16.0.0, SVG Export Plug-In . SVG Version: 6.00 Build 0)  -->
<!DOCTYPE svg PUBLIC "-//W3C//DTD SVG 1.1//EN" "http://www.w3.org/Graphics/SVG/1.1/DTD/svg11.dtd">
<svg version="1.1" id="Capa_1" xmlns="http://www.w3.org/2000/svg" xmlns:xlink="http://www.w3.org/1999/xlink" x="0px" y="0px"
	 width="64px" height="64px" viewBox="0 0 64 64" enable-background="new 0 0 64 64" xml:space="preserve">
<path fill="#86BF65" d="M62,32.001C62,48.543,48.543,62,32,62S2,48.543,2,32.001C2,15.458,15.457,2,32,2S62,15.458,62,32.001z"/>
<path fill="#FFFFFF" d="M51.856,24.603L31.846,44.687l-1.831,1.836c-0.978,0.983-2.262,1.474-3.551,1.474h-0.077
	c-1.268,0-2.535-0.484-3.501-1.455L12.114,35.729c-1.935-1.938-1.935-5.083,0-7.027c1.935-1.94,5.07-1.94,7,0l7.229,7.251l5.5-5.518
	l12.916-12.96c1.962-1.971,5.14-1.971,7.096,0C53.814,19.446,53.814,22.638,51.856,24.603z"/>
</svg>
