<?xml version="1.0" encoding="utf-8"?>
<!-- Generator: Adobe Illustrator 16.0.0, SVG Export Plug-In . SVG Version: 6.00 Build 0)  -->
<!DOCTYPE svg PUBLIC "-//W3C//DTD SVG 1.1//EN" "http://www.w3.org/Graphics/SVG/1.1/DTD/svg11.dtd">
<svg version="1.1" id="Layer_1" xmlns="http://www.w3.org/2000/svg" xmlns:xlink="http://www.w3.org/1999/xlink" x="0px" y="0px"
	 width="512px" height="512px" viewBox="0 0 512 512" enable-background="new 0 0 512 512" xml:space="preserve">
<g>
	<path fill="#EF4269" d="M255.999,0C114.611,0,0,114.617,0,256c0,141.382,114.61,256,255.999,256
		c141.378,0,255.999-114.617,255.999-256C511.998,114.617,397.378,0,255.999,0z M255.999,447.032
		c-105.333,0-191.032-85.693-191.032-191.033S150.666,64.968,255.999,64.968S447.031,150.666,447.031,256
		C447.031,361.336,361.332,447.032,255.999,447.032z"/>
	
		<rect x="20.48" y="223.513" transform="matrix(0.7071 0.7071 -0.7071 0.7071 255.9963 -106.0369)" fill="#EF4269" width="471.032" height="64.966"/>
</g>
</svg>
