<?xml version="1.0" encoding="utf-8"?>
<!-- Generator: Adobe Illustrator 16.0.0, SVG Export Plug-In . SVG Version: 6.00 Build 0)  -->
<!DOCTYPE svg PUBLIC "-//W3C//DTD SVG 1.1//EN" "http://www.w3.org/Graphics/SVG/1.1/DTD/svg11.dtd">
<svg version="1.1" id="Layer_1" xmlns="http://www.w3.org/2000/svg" xmlns:xlink="http://www.w3.org/1999/xlink" x="0px" y="0px"
	 width="100px" height="100px" viewBox="0 0 100 100" enable-background="new 0 0 100 100" xml:space="preserve">
<g>
	<g id="Page-1">
		<g id="_x30_27---Server-Files">
			<path id="Shape_1_" fill="#55BCE9" d="M6,15.629v70.603C6,92.733,23.9,98,46,98s40-5.267,40-11.768V15.629H6L6,15.629z"/>
			<path id="Shape_2_" fill="#52A1D9" d="M6,62.698c0,6.499,17.91,11.767,40,11.767s40-5.268,40-11.767V39.163
				c0,6.499-17.91,11.768-40,11.768S6,45.662,6,39.162V62.698z"/>
			<circle id="Oval" fill="#FCD462" cx="19.333" cy="36.222" r="3.333"/>
			<circle id="Oval_1_" fill="#FCD462" cx="19.333" cy="59.756" r="3.333"/>
			<circle id="Oval_2_" fill="#FCD462" cx="19.333" cy="83.291" r="3.333"/>
			<ellipse id="Oval_3_" fill="#B3DDE8" cx="46" cy="15.237" rx="40" ry="13.237"/>
		</g>
	</g>
	<path fill="#FCD462" d="M91.321,78.972c0.272-1.622,0.272-2.94,0-4.563L94,71.713l-2.679-6.697h-3.764
		c-0.806-1.084-2.149-2.16-3.218-3.228v-3.757l-6.715-2.698l-2.683,2.689c-1.672-0.264-2.954-0.264-4.565,0l-2.69-2.689l-6.7,2.689
		v3.75c-1.071,0.809-2.155,2.152-3.216,3.226h-3.752L51.333,71.7l2.686,2.699c-0.263,1.611-0.263,2.938,0,4.567l-2.686,2.68
		l2.686,6.712h3.698c0.859,1.064,2.171,2.16,3.2,3.232v3.718l6.733,2.69l2.681-2.69c1.642,0.306,2.941,0.306,4.564,0l2.686,2.69
		l6.709-2.69v-3.714c1.107-0.801,2.177-2.183,3.191-3.235h3.746l2.686-6.712L91.321,78.972z M69.583,84.881
		c-4.561-1.885-6.714-6.995-4.822-11.281c1.921-4.564,7.033-6.709,11.262-4.84c4.566,1.888,6.769,6.976,4.84,11.275
		C79.233,84.606,74.146,86.748,69.583,84.881z"/>
</g>
</svg>
