<?xml version="1.0" encoding="utf-8"?>
<!-- Generator: Adobe Illustrator 16.0.0, SVG Export Plug-In . SVG Version: 6.00 Build 0)  -->
<!DOCTYPE svg PUBLIC "-//W3C//DTD SVG 1.1//EN" "http://www.w3.org/Graphics/SVG/1.1/DTD/svg11.dtd">
<svg version="1.1" id="Capa_1" xmlns="http://www.w3.org/2000/svg" xmlns:xlink="http://www.w3.org/1999/xlink" x="0px" y="0px"
	 width="100px" height="100px" viewBox="0 0 100 100" enable-background="new 0 0 100 100" xml:space="preserve">
<g>
	<g>
		<path fill="#FCD462" d="M35.253,53.462l-4.516-4.516l11.926-11.926c1.248-1.248,3.271-1.248,4.517,0l0,0
			c1.248,1.248,1.248,3.271,0,4.517L35.253,53.462z"/>
		<path fill="#FCD462" d="M51.286,69.049l-4.517-4.517L58.473,52.83c1.248-1.248,3.271-1.248,4.518,0l0,0
			c1.247,1.248,1.247,3.271,0,4.517L51.286,69.049z"/>
	</g>
	
		<rect x="85.116" y="1.173" transform="matrix(-0.7072 -0.707 0.707 -0.7072 142.4863 82.4189)" fill="#BDC3C7" width="6.388" height="21.063"/>
	<path fill="#AFB6BB" d="M81.446,29.856L70.153,18.563l4.046-4.047c1.293-1.291,3.389-1.291,4.681,0l6.613,6.613
		c1.292,1.292,1.292,3.389,0,4.68L81.446,29.856z"/>
	<path fill="#BDC3C7" d="M74.282,55.089L44.92,25.728l9.879-9.879c4.522-4.522,11.855-4.522,16.379,0l12.981,12.982
		c4.522,4.523,4.522,11.855,0,16.379L74.282,55.089z"/>
	<path fill="#ECF0F1" d="M70.895,26.253c-0.425,0-0.849-0.162-1.171-0.484l-4.519-4.521c-1.221-1.222-3.209-1.222-4.432,0
		l-4.52,4.521c-0.646,0.646-1.691,0.646-2.34,0c-0.648-0.647-0.647-1.693,0-2.341l4.519-4.52c2.513-2.513,6.599-2.513,9.112,0
		l4.519,4.52c0.646,0.647,0.646,1.693,0,2.341C71.74,26.092,71.316,26.253,70.895,26.253z"/>
	
		<rect x="8.608" y="77.495" transform="matrix(0.7071 0.7071 -0.7071 0.7071 65.8121 17.4838)" fill="#BDC3C7" width="6.387" height="21.379"/>
	<path fill="#AFB6BB" d="M18.559,70.157L29.852,81.45l-4.047,4.047c-1.291,1.292-3.388,1.292-4.68,0l-6.613-6.613
		c-1.293-1.293-1.293-3.388,0-4.68L18.559,70.157z"/>
	<path fill="#BDC3C7" d="M27.98,42.667l29.36,29.36L45.204,84.165c-4.522,4.522-11.856,4.522-16.379,0L15.844,71.184
		c-4.522-4.522-4.522-11.855,0-16.379L27.98,42.667z"/>
	
		<rect x="19.258" y="59.984" transform="matrix(-0.7071 -0.7071 0.7071 -0.7071 10.4797 137.084)" fill="#55BCE9" width="28.746" height="12.776"/>
	<path fill="#ECF0F1" d="M37.016,71.424c-0.424,0-0.848-0.162-1.17-0.485l-6.774-6.775c-0.647-0.647-0.647-1.693,0-2.341
		c0.647-0.646,1.692-0.646,2.34,0l6.774,6.776c0.647,0.647,0.647,1.693,0,2.34C37.863,71.263,37.439,71.424,37.016,71.424z"/>
</g>
</svg>
