<?xml version="1.0" encoding="utf-8"?>
<!-- Generator: Adobe Illustrator 16.0.0, SVG Export Plug-In . SVG Version: 6.00 Build 0)  -->
<!DOCTYPE svg PUBLIC "-//W3C//DTD SVG 1.1//EN" "http://www.w3.org/Graphics/SVG/1.1/DTD/svg11.dtd">
<svg version="1.1" id="color" xmlns="http://www.w3.org/2000/svg" xmlns:xlink="http://www.w3.org/1999/xlink" x="0px" y="0px"
	 width="100px" height="100px" viewBox="0 0 100 100" enable-background="new 0 0 100 100" xml:space="preserve">
<g id="Page-1">
	<g id="_x30_27---Server-Files">
		<path id="Shape_1_" fill="#55BCE9" d="M10,15.63v70.602C10,92.733,27.899,98,50,98c22.1,0,40-5.267,40-11.768V15.63H10z"/>
		<path id="Shape_2_" fill="#52A1D9" d="M10,62.698c0,6.499,17.911,11.767,40,11.767c22.09,0,40-5.268,40-11.767V39.165
			c0,6.499-17.91,11.767-40,11.767c-22.089,0-40-5.269-40-11.768V62.698z"/>
		<circle id="Oval" fill="#FCD462" cx="23.333" cy="36.222" r="3.333"/>
		<circle id="Oval_1_" fill="#FCD462" cx="23.333" cy="59.756" r="3.333"/>
		<circle id="Oval_2_" fill="#FCD462" cx="23.333" cy="83.291" r="3.333"/>
		<ellipse id="Oval_3_" fill="#B3DDE8" cx="50" cy="15.237" rx="40" ry="13.237"/>
	</g>
</g>
</svg>
