<?xml version="1.0" encoding="utf-8"?>
<!-- Generator: Adobe Illustrator 16.0.0, SVG Export Plug-In . SVG Version: 6.00 Build 0)  -->
<!DOCTYPE svg PUBLIC "-//W3C//DTD SVG 1.1//EN" "http://www.w3.org/Graphics/SVG/1.1/DTD/svg11.dtd">
<svg version="1.1" id="Layer_1" xmlns="http://www.w3.org/2000/svg" xmlns:xlink="http://www.w3.org/1999/xlink" x="0px" y="0px"
	 width="100px" height="100px" viewBox="0 0 100 100" enable-background="new 0 0 100 100" xml:space="preserve">
<g>
	<path fill="#BDC3C7" d="M26.997,75.998c-6.403,0-12.1-4.101-14.167-10.202l-0.14-0.462c-0.487-1.617-0.691-2.978-0.691-4.336
		V33.726L2.294,66.119c-1.248,4.769,1.596,9.705,6.367,11.022l61.854,16.565c0.775,0.199,1.543,0.295,2.303,0.295
		c3.984,0,7.627-2.644,8.646-6.541l3.604-11.459h-58.07L26.997,75.998L26.997,75.998z"/>
	<path fill="#BDC3C7" d="M98,14.998v46c0,4.959-4.04,9-9.001,9H26.997c-0.399,0-0.799-0.04-1.162-0.08
		c-4.2-0.521-7.477-3.961-7.8-8.198c-0.038-0.238-0.038-0.478-0.038-0.722v-46c0-4.96,4.041-9,9-9h62.002
		C93.96,5.998,98,10.038,98,14.998z"/>
	<path fill="#FCD462" d="M45.998,25.999c0,4.418-3.58,8-8,8s-8-3.583-8-8s3.58-8,8-8S45.998,21.58,45.998,25.999z"/>
	<path fill="#52A1D9" d="M98,49.757v11.241c0,4.959-4.04,9-9.001,9H26.997c-0.399,0-0.799-0.04-1.162-0.08l41.204-41.199
		c2.72-2.722,7.199-2.722,9.92,0L98,49.757z"/>
	<path fill="#55BCE9" d="M74.238,69.998H26.997c-0.399,0-0.799-0.04-1.162-0.08c-4.2-0.521-7.477-3.961-7.8-8.198l19.001-18.999
		c2.72-2.721,7.2-2.721,9.92,0L74.238,69.998z"/>
</g>
</svg>
