<?xml version="1.0" encoding="utf-8"?>
<!-- Generator: Adobe Illustrator 16.0.0, SVG Export Plug-In . SVG Version: 6.00 Build 0)  -->
<!DOCTYPE svg PUBLIC "-//W3C//DTD SVG 1.1//EN" "http://www.w3.org/Graphics/SVG/1.1/DTD/svg11.dtd">
<svg version="1.1" id="Capa_1" xmlns="http://www.w3.org/2000/svg" xmlns:xlink="http://www.w3.org/1999/xlink" x="0px" y="0px"
	 width="100px" height="100px" viewBox="0 0 100 100" enable-background="new 0 0 100 100" xml:space="preserve">
<g>
	<polygon fill="#F3F3F3" points="57.601,85.2 29.6,95.4 2,83.4 23,55.2 38,58.2 51.8,55.801 70,58.801 98,98 	"/>
	<polygon fill="#66C6B9" points="19.6,64.6 9,80.6 31,89.199 33.8,76.4 	"/>
	<polygon fill="#FFD15C" points="33.4,71 35.4,70 37.6,59.8 24.6,57 21.4,62 	"/>
	<polygon fill="#CED6E0" points="48,66 35.8,73 49.2,83.199 56.8,80.6 54.601,69.601 	"/>
	<polygon fill="#4EC0AA" points="50.4,64.6 54,66.399 53.199,62.8 	"/>
	<polygon fill="#CED6E0" points="49,62.6 41.8,59 37.6,59.8 35.4,70 	"/>
	<g>
		<polygon fill="#4EC0AA" points="33.8,76.4 31,89.199 43.8,85 		"/>
		<polygon fill="#4EC0AA" points="51.2,61.4 52.801,60.601 52,57 45,58.4 		"/>
	</g>
	<g>
		<polygon fill="#66C6B9" points="53.199,62.8 54,66.399 80,79.6 67.6,59.8 60.601,58.6 		"/>
		<polygon fill="#66C6B9" points="57.399,58 52,57 52.801,60.601 		"/>
	</g>
	<polygon fill="#FFD15C" points="54.601,69.601 56.8,80.6 85.801,89.199 83.6,85.4 	"/>
	<path fill="#F3705A" d="M77.199,29.2c0,15-27.199,44-27.199,44s-27.2-28.8-27.2-44S35,2,50,2S77.199,14.2,77.199,29.2z"/>
	<circle fill="#FFFFFF" cx="50" cy="29.2" r="15.4"/>
</g>
</svg>
