<?xml version="1.0" encoding="utf-8"?>
<!-- Generator: Adobe Illustrator 16.0.0, SVG Export Plug-In . SVG Version: 6.00 Build 0)  -->
<!DOCTYPE svg PUBLIC "-//W3C//DTD SVG 1.1//EN" "http://www.w3.org/Graphics/SVG/1.1/DTD/svg11.dtd">
<svg version="1.1" id="Capa_1" xmlns="http://www.w3.org/2000/svg" xmlns:xlink="http://www.w3.org/1999/xlink" x="0px" y="0px"
	 width="100px" height="100px" viewBox="0 0 100 100" enable-background="new 0 0 100 100" xml:space="preserve">
<g>
	<path fill="#52A1D9" d="M60.17,56.595l7.205,7.205l-3.566,3.567l-7.205-7.205c0.634-0.544,1.258-1.114,1.854-1.712
		C59.055,57.852,59.626,57.229,60.17,56.595z"/>
	<path fill="#52A1D9" d="M58.458,11.67c12.297,12.297,12.868,31.951,1.712,44.925c-0.544,0.634-1.114,1.258-1.712,1.855
		c-0.598,0.597-1.222,1.168-1.854,1.712C43.621,71.326,23.967,70.756,11.67,58.459C-1.225,45.564-1.225,24.573,11.68,11.67
		C24.573-1.225,45.564-1.225,58.458,11.67z"/>
	<ellipse fill="#ECF0F1" cx="35.059" cy="35.063" rx="28.034" ry="28.034"/>
	<g>
		<path fill="#BDC3C7" d="M61.109,70.064l8.955-8.954c0.498-0.5,1.311-0.5,1.811,0l2.385,2.385L63.494,74.26l-2.385-2.385
			C60.609,71.375,60.609,70.564,61.109,70.064z"/>
		<path fill="#BDC3C7" d="M85.146,95.804l10.657-10.657l1.446,1.446c1,1,1,2.622,0,3.621l-7.036,7.037c-1,1-2.621,1-3.621,0
			L85.146,95.804z"/>
	</g>
	
		<rect x="72.268" y="64.307" transform="matrix(-0.7071 0.7071 -0.7071 -0.7071 192.845 79.87)" fill="#52A1D9" width="15.225" height="31.135"/>
</g>
</svg>
