<?xml version="1.0" encoding="utf-8"?>
<!-- Generator: Adobe Illustrator 16.0.0, SVG Export Plug-In . SVG Version: 6.00 Build 0)  -->
<!DOCTYPE svg PUBLIC "-//W3C//DTD SVG 1.1//EN" "http://www.w3.org/Graphics/SVG/1.1/DTD/svg11.dtd">
<svg version="1.1" id="Layer_1" xmlns="http://www.w3.org/2000/svg" xmlns:xlink="http://www.w3.org/1999/xlink" x="0px" y="0px"
	 width="100px" height="100px" viewBox="0 0 100 100" enable-background="new 0 0 100 100" xml:space="preserve">
<g>
	<path fill="#55BCE9" d="M66.402,28.948c-0.6-2.396-1.598-4.783-2.797-6.979l2.393-5.594l-8.4-8.182l-5.599,2.393
		c-2.195-1.195-4.396-2.196-6.995-2.792l-2-5.794H31.208l-2.213,5.798C26.604,8.396,24.204,9.392,22,10.587L16.403,8.19
		l-8.207,8.189l2.401,5.586c-1.203,2.191-2.195,4.391-2.8,6.982L2,31.139v11.778l5.802,2.197c0.609,2.391,1.605,4.784,2.8,6.977
		L8.2,57.687l8.402,8.175l5.601-2.374c2.194,1.2,4.392,2.188,6.997,2.788l2.191,5.793h11.6l2.201-5.793
		c2.399-0.639,4.8-1.629,6.993-2.788l5.604,2.374l8.405-8.175l-2.401-5.597c1.24-2.192,2.197-4.39,2.797-6.977l5.805-2.197V31.139
		L66.402,28.948z M37.007,51.305c-8.001,0-14.4-6.39-14.4-14.375c0-7.989,6.399-14.377,14.4-14.377
		c7.998,0,14.395,6.388,14.395,14.377C51.402,44.9,45.004,51.305,37.007,51.305z"/>
	<g>
		<path fill="#52A1D9" d="M47.208,47.109c-5.603,5.583-14.604,5.583-20.201,0l-5.201,5.183c8.396,8.389,22.193,8.389,30.591,0
			c8.409-8.381,8.409-21.947,0-30.525l-5.227,5.183C52.796,32.533,52.796,41.515,47.208,47.109z"/>
		<path fill="#52A1D9" d="M21.81,21.763c-8.399,8.366-8.399,21.953,0,30.526l5.205-5.184c-5.599-5.59-5.599-14.576,0-20.156
			c5.596-5.581,14.596-5.59,20.193,0l5.201-5.182C44.001,13.383,30.199,13.383,21.81,21.763z"/>
	</g>
	<path fill="#D29B6E" d="M69.801,83.825c0.201-1.236,0.201-2.196,0-3.392l1.998-2.004l-1.998-4.979h-2.796
		c-0.603-0.791-1.605-1.605-2.404-2.382v-2.774l-5.005-2.001l-1.998,1.998c-1.198-0.204-2.193-0.204-3.396,0l-2.001-1.998
		L47.2,68.291v2.779c-0.8,0.592-1.6,1.604-2.401,2.377h-2.796l-1.999,4.998l1.999,2.008c-0.2,1.199-0.2,2.189,0,3.365l-2,2.001
		l1.999,5.021h2.792c0.605,0.787,1.603,1.618,2.4,2.379v2.754L52.192,98l2.007-2.003c1.205,0.196,2.192,0.196,3.398,0l1.998,1.993
		l5.005-2.001v-2.788c0.844-0.604,1.623-1.599,2.404-2.396h2.793l2.001-4.985L69.801,83.825z M53.799,88.009
		c-3.401-1.435-5.009-5.185-3.6-8.382c1.398-3.383,5.204-4.977,8.4-3.583c3.399,1.402,5.005,5.182,3.599,8.379
		C60.801,87.813,57.003,89.41,53.799,88.009z"/>
	<path fill="#FF7474" d="M96.003,57.688c0.204-1.206,0.204-2.185,0-3.392L98,52.292l-1.997-4.979h-2.804
		c-0.601-0.805-1.603-1.605-2.398-2.398v-2.793l-5.005-2.004l-1.997,1.999c-1.248-0.197-2.201-0.197-3.404,0l-2.005-2l-4.993,2
		v2.787c-0.799,0.602-1.605,1.6-2.396,2.398h-2.796l-2.002,4.982l2.002,2.006c-0.196,1.199-0.196,2.185,0,3.396l-2.002,1.992
		l2.002,4.989h2.755c0.64,0.791,1.618,1.605,2.385,2.402v2.764l5.018,2.001l1.997-2.001c1.224,0.229,2.192,0.229,3.403,0
		l2.002,2.001l4.998-2.001v-2.761c0.827-0.596,1.623-1.622,2.38-2.405h2.791l2.002-4.989L96.003,57.688z M79.805,62.082
		c-3.4-1.401-5.006-5.201-3.596-8.387c1.431-3.393,5.242-4.988,8.393-3.598c3.403,1.403,5.043,5.186,3.607,8.382
		C86.995,61.878,83.204,63.47,79.805,62.082z"/>
</g>
</svg>
