<?xml version="1.0" encoding="utf-8"?>
<!-- Generator: Adobe Illustrator 16.0.0, SVG Export Plug-In . SVG Version: 6.00 Build 0)  -->
<!DOCTYPE svg PUBLIC "-//W3C//DTD SVG 1.1//EN" "http://www.w3.org/Graphics/SVG/1.1/DTD/svg11.dtd">
<svg version="1.1" id="Layer_1" xmlns="http://www.w3.org/2000/svg" xmlns:xlink="http://www.w3.org/1999/xlink" x="0px" y="0px"
	 width="512px" height="512px" viewBox="0 0 512 512" enable-background="new 0 0 512 512" xml:space="preserve">
<g id="Page-1">
	<g id="_x30_27---Server-Files">
		<path id="Shape" fill="#55BCE9" d="M316.345,264.621c4.761,0,8.621-3.86,8.621-8.621s-3.86-8.621-8.621-8.621H273.24V109.448
			c0-4.761,3.86-8.621,8.621-8.621h34.483c4.761,0,8.621-3.859,8.621-8.621s-3.86-8.621-8.621-8.621h-34.483
			c-14.282,0-25.861,11.579-25.861,25.862v137.931h-43.104c-4.761,0-8.621,3.859-8.621,8.621c0,4.761,3.859,8.621,8.621,8.621H256
			v137.931c0,14.283,11.579,25.86,25.861,25.86h34.483c4.761,0,8.621-3.859,8.621-8.62c0-4.762-3.86-8.621-8.621-8.621h-34.483
			c-4.761,0-8.621-3.858-8.621-8.619v-137.93H316.345z"/>
		<path id="Shape_1_" fill="#55BCE9" d="M6,152.552v206.897c0,19.05,46.293,34.483,103.448,34.483s103.448-15.434,103.448-34.483
			V152.552H6z"/>
		<path id="Shape_2_" fill="#52A1D9" d="M6,290.483c0,19.043,46.319,34.484,103.448,34.484s103.448-15.441,103.448-34.484v-68.966
			c0,19.043-46.319,34.483-103.448,34.483S6,240.561,6,221.517V290.483z"/>
		<circle id="Oval" fill="#FCD462" cx="40.483" cy="212.896" r="8.62"/>
		<circle id="Oval_1_" fill="#FCD462" cx="40.483" cy="281.862" r="8.621"/>
		<circle id="Oval_2_" fill="#FCD462" cx="40.483" cy="350.828" r="8.622"/>
		<ellipse id="Oval_3_" fill="#B3DDE8" cx="109.448" cy="148.241" rx="103.448" ry="38.793"/>
		<path id="Shape_3_" fill="#FCD462" d="M506,57.724v68.966c-0.028,9.511-7.731,17.213-17.241,17.241H333.586
			c-9.51-0.028-17.213-7.731-17.241-17.241V23.242c0.028-9.51,7.731-17.213,17.241-17.242h51.725
			c9.521,0,17.241,7.719,17.241,17.242c0,9.521,7.718,17.241,17.24,17.241h68.965C498.281,40.483,506,48.202,506,57.724z"/>
		<path id="Shape_4_" fill="#FCD462" d="M506,238.758v68.965c-0.028,9.511-7.731,17.214-17.241,17.242H333.586
			c-9.51-0.028-17.213-7.731-17.241-17.242V204.276c0.028-9.511,7.731-17.213,17.241-17.241h51.725
			c9.521,0,17.241,7.719,17.241,17.241c0,9.521,7.718,17.241,17.24,17.241h68.965C498.281,221.517,506,229.236,506,238.758z"/>
		<path id="Shape_5_" fill="#FCD462" d="M506,419.794v68.965c-0.028,9.51-7.731,17.213-17.241,17.241H333.586
			c-9.51-0.028-17.213-7.731-17.241-17.241V385.311c0.028-9.51,7.731-17.214,17.241-17.241h51.725
			c9.521,0,17.241,7.719,17.241,17.241c0,9.521,7.718,17.241,17.24,17.241h68.965C498.281,402.552,506,410.271,506,419.794z"/>
		<g>
			<circle id="Oval_4_" fill="#FCB660" cx="350.828" cy="109.448" r="8.621"/>
			<circle id="Oval_5_" fill="#FCB660" cx="350.828" cy="74.966" r="8.621"/>
			<circle id="Oval_6_" fill="#FCB660" cx="350.828" cy="290.483" r="8.622"/>
			<circle id="Oval_7_" fill="#FCB660" cx="350.828" cy="256" r="8.621"/>
			<circle id="Oval_8_" fill="#FCB660" cx="350.828" cy="471.518" r="8.621"/>
			<circle id="Oval_9_" fill="#FCB660" cx="350.828" cy="437.034" r="8.621"/>
		</g>
	</g>
</g>
</svg>
